<?xml version="1.0" standalone="no"?>
<!DOCTYPE svg PUBLIC "-//W3C//DTD SVG 20010904//EN"
 "http://www.w3.org/TR/2001/REC-SVG-20010904/DTD/svg10.dtd">
<svg version="1.0" xmlns="http://www.w3.org/2000/svg"
 width="267.000000pt" height="267.000000pt" viewBox="0 0 267.000000 267.000000"
 preserveAspectRatio="xMidYMid meet">
<metadata>
Created by potrace 1.14, written by Peter Selinger 2001-2017
</metadata>
<g transform="translate(0.000000,267.000000) scale(0.100000,-0.100000)"
fill="#000000" stroke="none">
<path d="M0 1335 l0 -1335 1335 0 1335 0 0 1335 0 1335 -1335 0 -1335 0 0
-1335z m1388 1059 c21 -14 22 -22 22 -149 0 -153 -12 -135 101 -154 31 -6 93
-24 138 -41 258 -100 443 -324 491 -597 10 -53 18 -74 30 -78 10 -3 69 -4 133
-3 101 3 117 1 136 -16 26 -23 27 -50 3 -74 -16 -16 -35 -18 -155 -17 l-137 1
-1 -31 c-2 -94 -65 -279 -112 -333 -8 -9 -22 -32 -32 -51 -23 -45 -103 -124
-117 -115 -6 4 -8 3 -5 -3 18 -29 -222 -174 -293 -177 -16 -1 -30 -5 -30 -10
0 -4 -7 -6 -15 -2 -8 3 -15 1 -15 -4 0 -6 -3 -9 -7 -8 -17 4 -93 -14 -99 -24
-4 -6 -6 -68 -5 -139 1 -127 1 -129 -24 -145 -23 -15 -27 -15 -50 0 -28 18
-27 13 -31 151 -1 55 -3 110 -3 123 -1 17 -7 22 -30 22 -95 0 -404 131 -385
162 4 6 2 8 -3 5 -6 -4 -24 3 -39 15 -35 27 -44 39 -38 50 3 5 0 7 -8 6 -7 -2
-12 3 -10 10 1 8 -2 11 -7 8 -12 -8 -63 53 -55 65 3 5 0 8 -8 7 -7 -2 -12 5
-12 14 1 10 -2 16 -6 13 -8 -5 -80 104 -84 128 -1 7 -12 44 -24 82 -11 39 -24
91 -27 118 -8 54 6 50 -163 49 -68 -1 -110 3 -107 8 3 6 -1 7 -9 4 -8 -3 -19
3 -25 15 -14 25 -14 32 5 56 13 18 30 21 151 25 l136 5 18 90 c23 112 41 160
96 256 58 103 147 197 246 263 95 62 168 91 287 115 l85 17 3 134 c2 107 6
138 19 152 20 22 42 23 71 2z"/>
<path d="M1305 1989 c-101 -7 -148 -21 -254 -72 -152 -75 -305 -255 -340 -402
-7 -27 -17 -66 -22 -85 -20 -71 -16 -168 15 -310 1 -8 19 -50 39 -93 80 -171
202 -284 387 -358 82 -32 90 -33 220 -33 151 0 203 12 318 69 126 64 235 175
301 310 52 105 68 170 70 285 3 145 -36 276 -117 395 -47 69 -75 97 -157 159
-81 63 -153 98 -245 119 -86 21 -119 23 -215 16z m65 -149 c0 -5 -10 -15 -22
-21 -22 -11 -38 -28 -38 -39 0 -4 16 -12 35 -19 73 -26 132 -120 120 -190 -6
-37 -5 -38 32 -53 l38 -14 43 54 c23 30 42 59 42 64 0 29 -35 125 -51 141 -11
10 -19 23 -19 30 0 18 21 37 42 37 22 0 43 -37 30 -53 -7 -8 -2 -36 13 -87
l24 -74 -49 -64 -49 -63 41 -41 41 -41 80 17 79 17 29 -33 c15 -18 28 -36 29
-40 0 -4 14 -15 31 -23 33 -18 37 -50 8 -68 -26 -16 -49 -1 -49 32 0 19 -11
43 -30 64 l-29 34 -62 -13 c-33 -7 -62 -14 -64 -16 -1 -2 5 -33 14 -70 16 -65
17 -66 60 -80 44 -13 45 -15 67 -86 12 -41 30 -79 39 -86 10 -7 16 -22 13 -37
-2 -19 -9 -24 -33 -24 -28 0 -30 3 -30 35 0 19 -7 61 -15 94 -12 51 -18 60
-47 72 -42 18 -40 19 -48 -19 -12 -55 -52 -122 -95 -161 -116 -105 -273 -106
-401 -5 -22 17 -41 30 -42 28 -1 -2 -10 -14 -20 -26 -18 -20 -18 -23 2 -91 12
-38 28 -73 36 -76 21 -8 19 -53 -4 -65 -29 -16 -56 9 -47 43 4 18 -1 52 -16
97 -15 47 -19 74 -13 83 51 69 49 62 26 115 -11 28 -21 57 -21 66 0 10 -6 15
-12 12 -7 -3 -33 -13 -58 -22 -25 -10 -51 -25 -57 -33 -19 -23 -16 -82 4 -104
21 -23 8 -51 -25 -56 -26 -4 -49 33 -33 52 6 7 12 33 13 57 2 69 9 78 88 112
76 33 76 33 82 107 l3 35 -73 25 -73 25 -21 73 c-13 45 -29 77 -40 83 -30 16
-17 69 18 69 24 0 45 -30 34 -50 -7 -13 -3 -37 13 -85 l23 -68 60 -18 c77 -24
79 -24 104 11 l22 30 -25 30 c-54 64 -59 151 -12 222 27 40 21 48 -36 48 -20
0 -29 5 -29 16 0 13 8 15 48 10 108 -14 155 -4 182 39 12 19 26 36 33 39 21 8
47 6 47 -4z"/>
<path d="M1249 1740 c-113 -20 -166 -163 -92 -250 l25 -30 26 19 c68 47 115
63 180 61 39 -1 42 1 42 26 0 21 -4 25 -17 20 -16 -5 -16 -4 1 8 24 19 16 54
-24 100 -34 38 -86 55 -141 46z"/>
<path d="M1364 1483 c4 -15 30 -100 58 -188 54 -170 82 -216 143 -231 35 -9
58 18 81 95 30 101 4 199 -73 273 -45 44 -92 65 -163 73 l-52 6 6 -28z m136
-85 c29 -38 30 -40 6 -18 -25 23 -52 60 -43 60 2 0 19 -19 37 -42z m50 -63
c11 -13 10 -14 -4 -9 -9 3 -16 10 -16 15 0 13 6 11 20 -6z"/>
<path d="M1296 1491 c-3 -5 3 -35 13 -67 98 -304 106 -350 72 -417 -21 -41
-21 -41 44 -37 33 1 135 47 135 60 0 4 -11 11 -24 14 -13 3 -39 23 -59 45 -36
40 -38 45 -117 304 -31 98 -48 124 -64 98z"/>
<path d="M1191 1414 c-53 -54 -70 -99 -70 -184 -1 -82 21 -131 82 -187 46 -42
112 -77 127 -68 21 13 43 97 37 143 -10 77 -100 335 -117 338 -9 1 -35 -18
-59 -42z"/>
</g>
</svg>
